<svg id="svg" version="1.1" xmlns="http://www.w3.org/2000/svg" xmlns:xlink="http://www.w3.org/1999/xlink" width="400" height="400" viewBox="0, 0, 400,400"><g id="svgg"><path id="path0" d="M191.626 4.985 C 191.037 5.023,189.021 5.149,187.147 5.265 C 95.833 10.931,19.792 81.272,6.839 172.055 C 5.370 182.349,4.969 188.369,4.969 200.097 C 4.969 210.001,5.077 212.436,5.861 220.156 C 15.165 311.860,88.335 385.029,180.039 394.334 C 187.759 395.118,190.194 395.226,200.097 395.226 C 210.001 395.226,212.436 395.118,220.156 394.334 C 311.858 385.029,385.029 311.858,394.334 220.156 C 395.118 212.436,395.226 210.001,395.226 200.097 C 395.226 137.710,366.448 80.509,316.261 43.144 C 286.796 21.207,252.370 8.410,214.555 5.339 C 211.070 5.056,194.494 4.800,191.626 4.985 M211.295 22.204 C 314.090 29.105,389.388 119.802,377.012 221.811 C 365.496 316.732,280.206 385.976,185.005 377.698 C 82.403 368.776,8.842 275.823,23.772 173.962 C 37.160 82.625,119.441 16.037,211.295 22.204 M139.977 260.124 C 140.543 260.164,141.420 260.163,141.925 260.123 C 142.430 260.083,141.967 260.051,140.896 260.052 C 139.825 260.052,139.411 260.085,139.977 260.124 M70.983 272.833 C 71.727 273.583,72.380 274.197,72.434 274.197 C 72.487 274.197,71.922 273.583,71.178 272.833 C 70.434 272.084,69.782 271.470,69.728 271.470 C 69.675 271.470,70.239 272.084,70.983 272.833 M134.421 297.316 C 134.715 297.360,135.197 297.360,135.492 297.316 C 135.786 297.271,135.545 297.235,134.956 297.235 C 134.367 297.235,134.126 297.271,134.421 297.316 M142.016 297.316 C 142.310 297.360,142.792 297.360,143.087 297.316 C 143.381 297.271,143.140 297.235,142.551 297.235 C 141.962 297.235,141.721 297.271,142.016 297.316 " stroke="none" fill="#ffff63" fill-rule="evenodd"></path><path id="path1" d="M188.413 0.215 C 75.689 6.741,-9.307 105.265,0.688 217.819 C 10.455 327.820,107.686 409.092,217.819 399.312 C 325.154 389.781,405.886 296.469,399.803 188.970 C 393.539 78.269,298.958 -6.185,188.413 0.215 M214.555 5.339 C 309.644 13.062,384.802 86.097,394.334 180.039 C 395.118 187.759,395.226 190.194,395.226 200.097 C 395.226 210.001,395.118 212.436,394.334 220.156 C 385.029 311.858,311.858 385.029,220.156 394.334 C 212.436 395.118,210.001 395.226,200.097 395.226 C 190.194 395.226,187.759 395.118,180.039 394.334 C 88.335 385.029,15.165 311.860,5.861 220.156 C 5.077 212.436,4.969 210.001,4.969 200.097 C 4.969 188.369,5.370 182.349,6.839 172.055 C 19.792 81.272,95.833 10.931,187.147 5.265 C 189.021 5.149,191.037 5.023,191.626 4.985 C 194.494 4.800,211.070 5.056,214.555 5.339 M192.447 22.006 C 88.246 26.831,10.640 118.441,23.183 221.811 C 33.021 302.891,97.305 367.175,178.384 377.012 C 293.460 390.973,390.973 293.460,377.012 178.384 C 365.846 86.354,284.849 17.726,192.447 22.006 M154.013 121.959 C 155.766 132.588,157.242 141.479,157.294 141.715 C 157.368 142.046,157.285 142.168,156.932 142.247 C 156.681 142.303,155.248 142.616,153.749 142.943 C 112.556 151.919,85.457 180.642,86.525 214.194 C 87.273 237.690,103.141 254.892,127.848 258.988 C 132.631 259.781,134.139 259.883,141.091 259.883 C 149.150 259.883,153.342 259.497,160.029 258.140 C 161.234 257.896,162.227 257.706,162.237 257.718 C 162.275 257.771,164.333 294.933,164.300 294.967 C 164.181 295.086,156.615 296.242,154.333 296.490 C 113.473 300.926,80.127 288.516,62.270 262.230 C 47.522 240.520,44.570 214.658,53.657 186.768 C 65.188 151.377,93.861 122.943,132.911 108.174 C 138.177 106.182,149.298 102.672,150.438 102.643 C 150.804 102.633,151.018 103.788,154.013 121.959 M226.466 107.318 C 229.818 116.820,236.497 135.193,247.769 165.920 C 264.040 210.276,269.405 224.733,269.541 224.592 C 269.621 224.509,270.405 222.556,271.282 220.253 C 272.159 217.950,278.002 202.790,284.266 186.563 C 306.000 130.268,314.483 108.065,316.172 103.055 C 316.222 102.906,316.360 102.862,316.503 102.949 C 316.905 103.195,345.078 122.473,346.388 123.398 L 347.595 124.252 346.318 126.926 C 341.337 137.349,334.005 153.361,307.012 212.756 C 281.680 268.495,276.332 280.179,269.018 295.764 L 268.172 297.566 267.419 297.566 L 266.665 297.566 264.895 293.914 C 258.141 279.982,246.388 252.581,216.845 181.889 C 201.201 144.455,195.965 132.084,193.909 127.695 C 193.322 126.440,192.997 125.525,193.103 125.422 C 193.491 125.047,224.804 102.830,224.862 102.889 C 224.897 102.923,225.618 104.916,226.466 107.318 " stroke="none" fill="#000000" fill-rule="evenodd"></path><path id="path2" d="M146.572 103.713 C 106.123 115.424,75.863 139.184,59.785 171.860 C 33.071 226.152,56.034 281.228,110.808 294.239 C 126.359 297.933,146.237 298.287,162.999 295.169 L 164.265 294.933 164.207 293.767 C 163.791 285.299,162.223 257.971,162.150 257.898 C 162.096 257.844,160.885 258.026,159.458 258.302 C 117.505 266.425,86.465 246.922,86.465 212.437 C 86.465 178.696,114.264 150.774,156.232 142.359 C 157.238 142.157,157.342 142.091,157.252 141.710 C 157.197 141.476,155.752 132.785,154.040 122.395 C 150.545 101.185,150.805 102.625,150.483 102.640 C 150.351 102.646,148.591 103.129,146.572 103.713 M208.962 114.147 C 200.237 120.355,193.073 125.460,193.042 125.491 C 193.011 125.522,193.518 126.716,194.167 128.145 C 196.765 133.858,202.616 147.712,219.377 187.829 C 245.423 250.170,258.147 279.797,265.145 294.401 L 266.661 297.566 267.381 297.566 L 268.101 297.566 269.425 294.791 C 273.645 285.942,283.196 265.068,307.938 210.613 C 334.417 152.338,341.619 136.612,345.776 127.997 L 347.583 124.250 331.971 113.560 C 319.400 104.953,316.332 102.932,316.222 103.188 C 316.146 103.362,314.712 107.186,313.035 111.685 C 309.306 121.683,302.310 139.943,289.197 173.905 C 283.718 188.096,277.081 205.316,274.449 212.171 C 271.817 219.026,269.606 224.700,269.536 224.779 C 269.416 224.917,264.512 211.688,247.864 166.310 C 238.323 140.302,231.190 120.709,228.014 111.782 C 226.623 107.872,225.337 104.266,225.155 103.767 L 224.825 102.860 208.962 114.147 " stroke="none" fill="#ffffff" fill-rule="evenodd"></path></g></svg>